<svg width="108" height="108" viewBox="0 0 108 108" fill="none" xmlns="http://www.w3.org/2000/svg">
<path d="M0 15C0 6.71573 6.71573 0 15 0H93C101.284 0 108 6.71573 108 15V93C108 101.284 101.284 108 93 108H15C6.71573 108 0 101.284 0 93V15Z" fill="#E11D2E"/>
<path d="M83 35.6937C80.8303 36.6558 78.4995 37.3059 76.0492 37.5998C78.5775 36.0858 80.469 33.703 81.3708 30.8959C78.9954 32.3079 76.3957 33.3018 73.6846 33.8344C71.8615 31.8863 69.4467 30.5951 66.8152 30.1612C64.1837 29.7273 61.4826 30.175 59.1314 31.4348C56.7802 32.6946 54.9104 34.6961 53.8122 37.1283C52.7141 39.5606 52.449 42.2877 53.0583 44.8862C48.2452 44.6443 43.5366 43.3924 39.2383 41.2115C34.94 39.0307 31.1479 35.9697 28.1081 32.2273C27.0687 34.0216 26.4711 36.1019 26.4711 38.3175C26.4699 40.312 26.9607 42.276 27.8999 44.0351C28.8391 45.7943 30.1977 47.2943 31.8551 48.402C29.9329 48.3407 28.0532 47.821 26.3724 46.8859V47.0419C26.3722 49.8393 27.3391 52.5506 29.109 54.7158C30.8789 56.8809 33.3428 58.3666 36.0827 58.9207C34.2996 59.4036 32.4302 59.4747 30.6156 59.1287C31.3886 61.5357 32.8944 63.6405 34.9222 65.1485C36.9499 66.6565 39.3981 67.4921 41.924 67.5385C37.6361 70.9071 32.3407 72.7344 26.8895 72.7263C25.9238 72.7266 24.959 72.6701 24 72.5573C29.5333 76.1177 35.9745 78.0073 42.5528 78C64.8214 78 76.995 59.5422 76.995 43.534C76.995 43.0139 76.982 42.4886 76.9586 41.9685C79.3266 40.2548 81.3706 38.1326 82.9948 35.7015L83 35.6937Z" fill="white"/>
</svg>
