<svg width="108" height="108" viewBox="0 0 108 108" fill="none" xmlns="http://www.w3.org/2000/svg">
<rect width="108" height="108" rx="15" fill="#E11D2E"/>
<path d="M77.6918 30.4238C77.6918 30.4238 83.0198 28.3461 82.5741 33.3916C82.4274 35.4693 81.0957 42.7419 80.0589 50.607L76.5069 73.9075C76.5069 73.9075 76.2107 77.321 73.546 77.9148C70.8827 78.5072 66.8864 75.8371 66.1458 75.2433C65.5534 74.7975 55.0455 68.1187 51.3454 64.8547C50.3086 63.9633 49.1237 62.1832 51.4935 60.1055L67.0331 45.264C68.8091 43.4839 70.5851 39.3284 63.1849 44.3739L42.4627 58.4721C42.4627 58.4721 40.0943 59.9574 35.655 58.6216L26.0331 55.6525C26.0331 55.6525 22.4811 53.4267 28.5496 51.2008C43.3514 44.2258 61.557 37.1026 77.6891 30.4238H77.6918Z" fill="white"/>
</svg>
