<svg width="108" height="108" viewBox="0 0 108 108" fill="none" xmlns="http://www.w3.org/2000/svg">
<rect width="108" height="108" rx="15" fill="#E11D2E"/>
<path d="M53.994 45.9966C49.587 45.9966 45.9906 49.593 45.9906 54C45.9906 58.407 49.587 62.0034 53.994 62.0034C58.401 62.0034 61.9974 58.407 61.9974 54C61.9974 49.593 58.401 45.9966 53.994 45.9966ZM77.9982 54C77.9982 50.6858 78.0282 47.4015 77.8421 44.0933C77.656 40.2507 76.7794 36.8404 73.9695 34.0305C71.1536 31.2146 67.7493 30.344 63.9067 30.1579C60.5925 29.9718 57.3082 30.0018 54 30.0018C50.6858 30.0018 47.4015 29.9718 44.0933 30.1579C40.2507 30.344 36.8404 31.2206 34.0305 34.0305C31.2146 36.8464 30.344 40.2507 30.1579 44.0933C29.9718 47.4075 30.0018 50.6918 30.0018 54C30.0018 57.3082 29.9718 60.5985 30.1579 63.9067C30.344 67.7493 31.2206 71.1596 34.0305 73.9695C36.8464 76.7854 40.2507 77.656 44.0933 77.8421C47.4075 78.0282 50.6918 77.9982 54 77.9982C57.3142 77.9982 60.5985 78.0282 63.9067 77.8421C67.7493 77.656 71.1596 76.7794 73.9695 73.9695C76.7854 71.1536 77.656 67.7493 77.8421 63.9067C78.0342 60.5985 77.9982 57.3142 77.9982 54ZM53.994 66.3143C47.1794 66.3143 41.6797 60.8146 41.6797 54C41.6797 47.1854 47.1794 41.6857 53.994 41.6857C60.8086 41.6857 66.3083 47.1854 66.3083 54C66.3083 60.8146 60.8086 66.3143 53.994 66.3143ZM66.8127 44.0573C65.2216 44.0573 63.9367 42.7724 63.9367 41.1813C63.9367 39.5903 65.2216 38.3054 66.8127 38.3054C68.4037 38.3054 69.6886 39.5903 69.6886 41.1813C69.6891 41.5591 69.615 41.9333 69.4706 42.2825C69.3263 42.6316 69.1145 42.9488 68.8473 43.216C68.5802 43.4831 68.2629 43.695 67.9138 43.8393C67.5647 43.9837 67.1905 44.0578 66.8127 44.0573Z" fill="white"/>
</svg>
