<svg width="108" height="108" viewBox="0 0 108 108" fill="none" xmlns="http://www.w3.org/2000/svg">
<rect width="108" height="108" rx="15" fill="#E11D2E"/>
<path d="M54 30C40.7464 30 30 40.7464 30 54C30 67.2536 40.7464 78 54 78C67.2536 78 78 67.2536 78 54C78 40.7464 67.2536 30 54 30ZM67.7143 43.5911L65.5286 45.6857C65.3357 45.8304 65.2446 46.0661 65.2821 46.2964V61.7089C65.2446 61.9446 65.3357 62.1804 65.5286 62.3196L67.6714 64.4143V64.8804H56.9143V64.4357L59.1268 62.2875C59.3464 62.0679 59.3464 62.0036 59.3464 61.6768V49.2054L53.1857 64.8268H52.3554L45.1875 49.2054V59.6786C45.1232 60.1179 45.2786 60.5625 45.5893 60.8786L48.4714 64.3661V64.8321H40.2857V64.3661L43.1679 60.8786C43.3197 60.7217 43.4327 60.5315 43.4978 60.3231C43.563 60.1147 43.5784 59.894 43.5429 59.6786V47.5714C43.5804 47.2339 43.4518 46.9071 43.1946 46.6768L40.6339 43.5911V43.125H48.5893L54.7286 56.5982L60.1339 43.1357H67.7143V43.5911Z" fill="white"/>
</svg>
