<svg width="108" height="108" viewBox="0 0 108 108" fill="none" xmlns="http://www.w3.org/2000/svg">
<rect width="108" height="108" rx="15" fill="#E11D2E"/>
<path fill-rule="evenodd" clip-rule="evenodd" d="M78 54C78 67.254 67.254 78 54 78C40.746 78 30 67.254 30 54C30 40.746 40.746 30 54 30C67.254 30 78 40.746 78 54ZM69.376 52.116C69.764 52.67 69.984 53.324 70.008 54C70.0185 54.6613 69.8414 55.3121 69.4974 55.877C69.1534 56.4419 68.6564 56.8978 68.064 57.192C68.092 57.544 68.092 57.896 68.064 58.248C68.064 63.624 61.8 67.992 54.072 67.992C46.344 67.992 40.08 63.624 40.08 58.248C40.053 57.8965 40.053 57.5435 40.08 57.192C39.6223 56.9778 39.2165 56.667 38.8904 56.281C38.5643 55.895 38.3256 55.443 38.1907 54.956C38.0559 54.469 38.0282 53.9585 38.1093 53.4598C38.1905 52.961 38.3787 52.4858 38.6611 52.0667C38.9434 51.6476 39.3131 51.2946 39.7448 51.032C40.1765 50.7693 40.66 50.6033 41.162 50.5453C41.6639 50.4872 42.1725 50.5386 42.6528 50.6958C43.133 50.853 43.5735 51.1124 43.944 51.456C46.7095 49.5805 49.9629 48.5544 53.304 48.504L55.08 40.176C55.0999 40.0796 55.1388 39.9881 55.1944 39.9068C55.25 39.8255 55.3211 39.7561 55.4037 39.7025C55.4863 39.649 55.5787 39.6123 55.6756 39.5947C55.7724 39.5771 55.8718 39.5789 55.968 39.6L61.848 40.776C62.1352 40.2826 62.5887 39.9078 63.1274 39.7187C63.666 39.5297 64.2543 39.5388 64.7868 39.7444C65.3193 39.9501 65.7611 40.3388 66.0329 40.8408C66.3046 41.3428 66.3885 41.9252 66.2695 42.4835C66.1505 43.0418 65.8365 43.5394 65.3837 43.887C64.9309 44.2346 64.369 44.4095 63.7989 44.3801C63.2288 44.3508 62.6879 44.1192 62.2731 43.727C61.8584 43.3348 61.5971 42.8076 61.536 42.24L56.4 41.16L54.84 48.648C58.1405 48.7188 61.3498 49.7441 64.08 51.6C64.4445 51.2496 64.8805 50.9822 65.3581 50.8163C65.8357 50.6504 66.3436 50.5899 66.8468 50.639C67.35 50.688 67.8366 50.8454 68.2732 51.1004C68.7098 51.3553 69.086 51.7018 69.376 52.116ZM46.412 55.066C46.2368 55.3281 46.115 55.6222 46.0534 55.9314C45.9919 56.2406 45.9919 56.5589 46.0533 56.8681C46.1775 57.4926 46.5446 58.0422 47.074 58.396C47.6034 58.7498 48.2516 58.8788 48.8761 58.7547C49.1853 58.6932 49.4794 58.5714 49.7416 58.3963C50.0037 58.2212 50.2288 57.9961 50.404 57.734C50.7578 57.2046 50.8868 56.5564 50.7627 55.9319C50.6385 55.3074 50.2714 54.7578 49.742 54.404C49.2126 54.0502 48.5644 53.9212 47.9399 54.0453C47.3154 54.1695 46.7658 54.5366 46.412 55.066ZM54.024 64.848C56.154 64.936 58.25 64.38 59.952 63.096C60.0793 62.9719 60.1521 62.8023 60.1543 62.6245C60.1566 62.4467 60.0881 62.2753 59.964 62.148C59.9025 62.085 59.8293 62.0347 59.7484 61.9999C59.6675 61.9652 59.5805 61.9468 59.4925 61.9457C59.3147 61.9434 59.1433 62.0119 59.016 62.136C57.5595 63.1809 55.7899 63.6973 54 63.6C52.2123 63.6799 50.451 63.1464 49.008 62.088C48.8836 61.9859 48.7258 61.9338 48.5651 61.9417C48.4044 61.9496 48.2524 62.0169 48.1387 62.1307C48.0249 62.2444 47.9576 62.3964 47.9497 62.5571C47.9418 62.7178 47.9939 62.8757 48.096 63C49.7987 64.2832 51.8937 64.9363 54.024 64.848ZM58.186 58.492C58.582 58.756 59.022 58.992 59.496 58.992C59.8215 58.9958 60.1444 58.9333 60.445 58.8083C60.7455 58.6833 61.0175 58.4983 61.2443 58.2648C61.4711 58.0313 61.6479 57.754 61.7641 57.4499C61.8803 57.1458 61.9333 56.8213 61.92 56.496C61.9198 56.0814 61.8123 55.674 61.6079 55.3133C61.4034 54.9527 61.1091 54.6512 60.7534 54.4381C60.3978 54.225 59.9931 54.1077 59.5786 54.0976C59.1642 54.0875 58.7542 54.1849 58.3886 54.3803C58.023 54.5757 57.7142 54.8626 57.4924 55.2128C57.2706 55.563 57.1433 55.9647 57.1229 56.3788C57.1025 56.7928 57.1897 57.2051 57.376 57.5755C57.5623 57.9458 57.8414 58.2616 58.186 58.492Z" fill="white"/>
</svg>
