<svg width="108" height="108" viewBox="0 0 108 108" fill="none" xmlns="http://www.w3.org/2000/svg">
<rect width="108" height="108" rx="15" fill="#E11D2E"/>
<path fill-rule="evenodd" clip-rule="evenodd" d="M30 54.134C30 66.066 38.666 75.988 50 78V60.666H44V54H50V48.666C50 42.666 53.866 39.334 59.334 39.334C61.066 39.334 62.934 39.6 64.666 39.866V46H61.6C58.666 46 58 47.466 58 49.334V54H64.4L63.334 60.666H58V78C69.334 75.988 78 66.068 78 54.134C78 40.86 67.2 30 54 30C40.8 30 30 40.86 30 54.134Z" fill="white"/>
</svg>
